<?xml version="1.0" encoding="utf-8"?>
<svg viewBox="0 0 153.077 153.078" xmlns="http://www.w3.org/2000/svg">
  <path
    d="M 153.077 76.539 C 153.077 84.015 152.001 91.23 149.994 98.037 C 140.684 129.834 111.273 153.078 76.539 153.078 C 34.327 153.078 0 118.75 0 76.539 C 0 34.327 34.327 0 76.539 0 C 92.16 0 106.706 4.713 118.837 12.8 L 98.531 41.251 C 92.131 37.266 84.626 34.909 76.539 34.909 C 53.585 34.909 34.909 53.586 34.909 76.539 C 34.909 99.492 53.585 118.168 76.539 118.168 C 91.637 118.168 104.873 110.11 112.175 98.037 C 115.986 91.782 118.168 84.422 118.168 76.539 C 118.168 72.902 117.644 69.411 116.771 66.037 L 152.35 66.037 C 152.815 69.469 153.077 72.99 153.077 76.539 Z"
    stroke-width="0" stroke-miterlimit="2" fill="#F4D03F" stroke="#F4D03F"/>
  <path
    d="M 153.077 76.539 C 153.077 84.015 152.001 91.23 149.994 98.037 L 74.124 98.037 L 74.124 66.037 L 152.35 66.037 C 152.815 69.469 153.077 72.99 153.077 76.539 Z"
    stroke-width="0" stroke-miterlimit="2" fill="#DADFE1" stroke="#DADFE1"/>
  <path
    d="M 152.35 66.037 L 116.771 66.037 C 117.644 69.411 118.168 72.902 118.168 76.539 C 118.168 84.422 115.986 91.782 112.175 98.037 L 149.994 98.037 C 152.001 91.23 153.077 84.015 153.077 76.539 C 153.077 72.99 152.815 69.469 152.35 66.037 Z"
    stroke-width="0" stroke-miterlimit="2" fill="#E7D890" stroke="#E7D890"/>
</svg>
